# 3ds Max Wavefront OBJ Exporter v0.99 - (c)2007 guruware
# File Created: 03.04.2024 14:31:32

#
# object Box001
#

v  -0.0403 0.0413 0.0280
v  -0.0403 0.0413 -0.0280
v  0.0403 0.0413 -0.0280
v  0.0403 0.0413 0.0280
v  -0.0666 0.5969 0.0648
v  0.0666 0.5969 0.0648
v  0.0666 0.5969 -0.0683
v  -0.0666 0.5969 -0.0683
v  0.1047 0.2488 0.0825
v  0.1047 0.3860 0.0825
v  -0.1047 0.3860 0.0825
v  -0.1047 0.2488 0.0825
v  0.1047 0.2488 -0.0825
v  0.1047 0.3860 -0.0825
v  -0.1047 0.2488 -0.0825
v  -0.1047 0.3860 -0.0825
v  -0.1047 0.4583 0.0825
v  0.1047 0.4583 0.0825
v  0.0666 0.4583 0.0648
v  -0.0666 0.4583 0.0648
v  0.1047 0.4583 -0.0825
v  0.0666 0.4583 -0.0683
v  -0.1047 0.4583 -0.0825
v  -0.0666 0.4583 -0.0683
v  0.1578 0.4583 -0.0825
v  0.1578 0.4583 0.0825
v  0.1578 0.3860 0.0825
v  0.1578 0.3860 -0.0825
v  -0.1578 0.4583 0.0825
v  -0.1578 0.4583 -0.0825
v  -0.1578 0.3860 -0.0825
v  -0.1578 0.3860 0.0825
v  0.1222 0.2401 0.0537
v  0.1222 0.2401 -0.0011
v  0.1404 0.2401 -0.0011
v  0.1404 0.2401 0.0537
v  -0.1222 0.2401 -0.0011
v  -0.1222 0.2401 0.0537
v  -0.1404 0.2401 0.0537
v  -0.1404 0.2401 -0.0011
v  0.1222 0.3860 -0.0011
v  0.1222 0.3860 0.0537
v  0.1404 0.3860 -0.0011
v  0.1404 0.3860 0.0537
v  -0.1222 0.3860 0.0537
v  -0.1222 0.3860 -0.0011
v  -0.1404 0.3860 0.0537
v  -0.1404 0.3860 -0.0011
v  -0.0584 0.1699 -0.0461
v  -0.0584 0.1699 0.0461
v  0.0584 0.1699 -0.0461
v  0.0584 0.1699 0.0461
v  -0.0403 0.1699 -0.0280
v  -0.0403 0.1699 0.0280
v  0.0403 0.1699 -0.0280
v  0.0403 0.1699 0.0280
v  -0.0896 0.0799 0.0098
v  -0.0896 0.0799 -0.0098
v  -0.0896 0.0594 -0.0098
v  -0.0896 0.0594 0.0098
v  0.0896 0.0799 -0.0098
v  0.0896 0.0799 0.0098
v  0.0896 0.0594 0.0098
v  0.0896 0.0594 -0.0098
v  -0.0403 0.0799 -0.0098
v  -0.0403 0.0799 0.0098
v  -0.0403 0.0594 -0.0098
v  -0.0403 0.0594 0.0098
v  0.0403 0.0799 0.0098
v  0.0403 0.0799 -0.0098
v  0.0403 0.0594 0.0098
v  0.0403 0.0594 -0.0098
v  -0.0783 0.1393 -0.0128
v  -0.0783 0.1393 0.0128
v  -0.0618 0.1393 0.0128
v  -0.0618 0.1393 -0.0128
v  -0.0783 0.0564 -0.0693
v  -0.0783 0.0829 -0.0693
v  -0.0618 0.0829 -0.0693
v  -0.0618 0.0564 -0.0693
v  -0.0783 0.0000 0.0128
v  -0.0783 0.0000 -0.0128
v  -0.0618 0.0000 -0.0128
v  -0.0618 0.0000 0.0128
v  -0.0783 0.0829 0.0693
v  -0.0783 0.0564 0.0693
v  -0.0618 0.0564 0.0693
v  -0.0618 0.0829 0.0693
v  0.0783 0.1393 0.0128
v  0.0783 0.1393 -0.0128
v  0.0618 0.1393 -0.0128
v  0.0618 0.1393 0.0128
v  0.0783 0.0564 0.0693
v  0.0783 0.0829 0.0693
v  0.0618 0.0829 0.0693
v  0.0618 0.0564 0.0693
v  0.0783 0.0000 -0.0128
v  0.0783 0.0000 0.0128
v  0.0618 0.0000 0.0128
v  0.0618 0.0000 -0.0128
v  0.0783 0.0829 -0.0693
v  0.0783 0.0564 -0.0693
v  0.0618 0.0564 -0.0693
v  0.0618 0.0829 -0.0693
v  -0.0783 0.0799 0.0098
v  -0.0783 0.0799 -0.0098
v  -0.0618 0.0799 -0.0098
v  -0.0618 0.0799 0.0098
v  -0.0783 0.0594 -0.0098
v  -0.0618 0.0594 -0.0098
v  -0.0783 0.0594 0.0098
v  -0.0618 0.0594 0.0098
v  0.0783 0.0799 -0.0098
v  0.0783 0.0799 0.0098
v  0.0618 0.0799 0.0098
v  0.0618 0.0799 -0.0098
v  0.0783 0.0594 0.0098
v  0.0618 0.0594 0.0098
v  0.0783 0.0594 -0.0098
v  0.0618 0.0594 -0.0098
v  -0.0783 0.0995 0.0294
v  -0.0783 0.0995 -0.0294
v  -0.0783 0.0399 0.0294
v  -0.0783 0.0399 -0.0294
v  -0.0618 0.0995 -0.0294
v  -0.0618 0.0995 0.0294
v  -0.0618 0.0399 -0.0294
v  -0.0618 0.0399 0.0294
v  0.0783 0.0995 -0.0294
v  0.0783 0.0995 0.0294
v  0.0783 0.0399 -0.0294
v  0.0783 0.0399 0.0294
v  0.0618 0.0995 0.0294
v  0.0618 0.0995 -0.0294
v  0.0618 0.0399 0.0294
v  0.0618 0.0399 -0.0294
v  -0.0783 0.1252 0.0551
v  -0.0783 0.1252 -0.0551
v  -0.0783 0.0141 0.0551
v  -0.0783 0.0141 -0.0551
v  -0.0618 0.1252 -0.0551
v  -0.0618 0.1252 0.0551
v  -0.0618 0.0141 -0.0551
v  -0.0618 0.0141 0.0551
v  0.0783 0.1252 -0.0551
v  0.0783 0.1252 0.0551
v  0.0783 0.0141 -0.0551
v  0.0783 0.0141 0.0551
v  0.0618 0.1252 0.0551
v  0.0618 0.1252 -0.0551
v  0.0618 0.0141 0.0551
v  0.0618 0.0141 -0.0551
# 152 vertices

vn 0.0000 -1.0000 -0.0000
vn 0.0000 1.0000 -0.0000
vn 0.0000 -0.1749 0.9846
vn 0.0000 0.0000 1.0000
vn 1.0000 0.0000 -0.0000
vn 0.0000 -0.1749 -0.9846
vn 0.0000 0.0000 -1.0000
vn -1.0000 0.0000 -0.0000
vn -0.8628 -0.5055 -0.0000
vn 0.0000 -0.4192 -0.9079
vn 0.8628 -0.5055 -0.0000
vn 0.0000 -0.4192 0.9079
vn 0.0000 0.9871 -0.1602
vn 0.0000 0.9871 0.1602
vn 0.0000 -0.1602 -0.9871
vn 0.0000 0.1602 -0.9871
vn 0.0000 -0.9871 0.1602
vn 0.0000 -0.9871 -0.1602
vn 0.0000 0.1602 0.9871
vn 0.0000 -0.1602 0.9871
vn 0.0000 0.9487 -0.3162
vn 0.0000 0.9487 0.3162
vn 0.0000 -0.3162 -0.9487
vn 0.0000 0.3162 -0.9487
vn 0.0000 -0.9487 0.3162
vn 0.0000 -0.9487 -0.3162
vn 0.0000 0.3162 0.9487
vn 0.0000 -0.3162 0.9487
# 28 vertex normals

vt 0.5629 0.4450 0.0000
vt 0.5629 0.2711 0.0000
vt 0.8138 0.2711 0.0000
vt 0.8138 0.4450 0.0000
vt 0.3078 0.2711 0.0000
vt 0.5537 0.2711 0.0000
vt 0.5537 0.5220 0.0000
vt 0.3078 0.5220 0.0000
vt 0.7750 0.0760 0.0000
vt 0.7750 0.1846 0.0000
vt 0.6086 0.1846 0.0000
vt 0.6086 0.0760 0.0000
vt 0.9641 0.0825 0.0000
vt 0.9641 0.1950 0.0000
vt 0.8267 0.1950 0.0000
vt 0.8267 0.0825 0.0000
vt 0.7753 0.0761 0.0000
vt 0.7753 0.1847 0.0000
vt 0.6088 0.1847 0.0000
vt 0.6088 0.0761 0.0000
vt 0.0532 0.8337 0.0000
vt 0.2197 0.8337 0.0000
vt 0.1894 0.8478 0.0000
vt 0.0835 0.8478 0.0000
vt 0.2197 0.9649 0.0000
vt 0.1894 0.9536 0.0000
vt 0.0532 0.9649 0.0000
vt 0.0835 0.9536 0.0000
vt 0.0110 0.5736 0.0000
vt 0.2569 0.5736 0.0000
vt 0.2569 0.8245 0.0000
vt 0.0110 0.8245 0.0000
vt 0.7750 0.2418 0.0000
vt 0.6086 0.2418 0.0000
vt 0.9641 0.2619 0.0000
vt 0.8267 0.2619 0.0000
vt 0.8267 0.2027 0.0000
vt 0.9641 0.2027 0.0000
vt 0.7753 0.2419 0.0000
vt 0.6088 0.2419 0.0000
vt 0.2619 0.8337 0.0000
vt 0.2619 0.9649 0.0000
vt 0.8173 0.1846 0.0000
vt 0.8173 0.2418 0.0000
vt 0.4744 0.9890 0.0000
vt 0.4744 0.7381 0.0000
vt 0.5579 0.7381 0.0000
vt 0.5579 0.9890 0.0000
vt 0.5666 0.2419 0.0000
vt 0.5666 0.1847 0.0000
vt 0.0110 0.9649 0.0000
vt 0.0110 0.8337 0.0000
vt 0.8175 0.1847 0.0000
vt 0.8175 0.2419 0.0000
vt 0.5664 0.2418 0.0000
vt 0.5664 0.1846 0.0000
vt 0.7895 0.7821 0.0000
vt 0.7895 0.5311 0.0000
vt 0.8160 0.6549 0.0000
vt 0.8160 0.7382 0.0000
vt 0.8703 0.5311 0.0000
vt 0.8438 0.6549 0.0000
vt 0.8703 0.7821 0.0000
vt 0.8438 0.7382 0.0000
vt 0.6862 0.7821 0.0000
vt 0.7804 0.7821 0.0000
vt 0.7804 0.5311 0.0000
vt 0.6862 0.5311 0.0000
vt 0.2974 0.8245 0.0000
vt 0.2661 0.8245 0.0000
vt 0.2661 0.5736 0.0000
vt 0.2974 0.5736 0.0000
vt 0.8570 0.0110 0.0000
vt 0.9338 0.0110 0.0000
vt 0.6456 0.0111 0.0000
vt 0.7385 0.0111 0.0000
vt 0.6454 0.0110 0.0000
vt 0.7383 0.0110 0.0000
vt 0.3078 0.7289 0.0000
vt 0.3078 0.5311 0.0000
vt 0.3467 0.5700 0.0000
vt 0.3467 0.6901 0.0000
vt 0.5587 0.5311 0.0000
vt 0.5198 0.5700 0.0000
vt 0.5587 0.7289 0.0000
vt 0.5198 0.6901 0.0000
vt 0.2211 0.2276 0.0000
vt 0.0877 0.2268 0.0000
vt 0.0885 0.0877 0.0000
vt 0.2219 0.0885 0.0000
vt 0.4652 0.9890 0.0000
vt 0.3078 0.9890 0.0000
vt 0.3078 0.7381 0.0000
vt 0.4652 0.7381 0.0000
vt 0.6770 0.7821 0.0000
vt 0.5679 0.7821 0.0000
vt 0.6032 0.6066 0.0000
vt 0.6417 0.6066 0.0000
vt 0.5679 0.5311 0.0000
vt 0.6032 0.5665 0.0000
vt 0.6770 0.5311 0.0000
vt 0.6417 0.5665 0.0000
vt 0.0742 0.3136 -0.0275
vt 0.0596 0.3136 -0.0275
vt 0.0596 0.5645 -0.0275
vt 0.0742 0.5645 -0.0275
vt 0.1372 0.3136 -0.0271
vt 0.1221 0.3136 -0.0271
vt 0.1221 0.5645 -0.0271
vt 0.1372 0.5645 -0.0271
vt 0.1997 0.3136 -0.0275
vt 0.1851 0.3136 -0.0275
vt 0.1851 0.5645 -0.0275
vt 0.1997 0.5645 -0.0275
vt 0.2626 0.3136 -0.0271
vt 0.2476 0.3136 -0.0271
vt 0.2476 0.5645 -0.0271
vt 0.2626 0.5645 -0.0271
vt 0.0589 0.5644 -0.0275
vt 0.0735 0.5644 -0.0275
vt 0.0735 0.3135 -0.0275
vt 0.0589 0.3135 -0.0275
vt 0.2469 0.5644 -0.0271
vt 0.2619 0.5644 -0.0271
vt 0.2619 0.3135 -0.0271
vt 0.2469 0.3135 -0.0271
vt 0.1843 0.5644 -0.0275
vt 0.1990 0.5644 -0.0275
vt 0.1990 0.3135 -0.0275
vt 0.1843 0.3135 -0.0275
vt 0.1214 0.5644 -0.0271
vt 0.1365 0.5644 -0.0271
vt 0.1365 0.3135 -0.0271
vt 0.1214 0.3135 -0.0271
vt 0.2207 0.3043 0.0000
vt 0.0873 0.3035 0.0000
vt 0.3728 0.6237 0.0000
vt 0.3728 0.5829 0.0000
vt 0.4165 0.5829 0.0000
vt 0.4165 0.6237 0.0000
vt 0.0110 0.2264 0.0000
vt 0.0118 0.0873 0.0000
vt 0.0890 0.0110 0.0000
vt 0.2224 0.0118 0.0000
vt 0.2987 0.0889 0.0000
vt 0.2978 0.2281 0.0000
vt 0.4502 0.1549 0.0000
vt 0.4854 0.1901 0.0000
vt 0.4556 0.2619 0.0000
vt 0.4094 0.2619 0.0000
vt 0.3796 0.1901 0.0000
vt 0.4148 0.1549 0.0000
vt 0.4502 0.1180 0.0000
vt 0.4854 0.0828 0.0000
vt 0.5572 0.1126 0.0000
vt 0.5572 0.1603 0.0000
vt 0.4148 0.1180 0.0000
vt 0.3796 0.0828 0.0000
vt 0.4094 0.0110 0.0000
vt 0.4556 0.0110 0.0000
vt 0.3078 0.1603 0.0000
vt 0.3078 0.1126 0.0000
vt 0.5318 0.2365 0.0000
vt 0.3332 0.2365 0.0000
vt 0.5318 0.0364 0.0000
vt 0.3332 0.0364 0.0000
vt 0.0983 0.5645 0.0275
vt 0.0983 0.3136 0.0275
vt 0.0356 0.3136 0.0275
vt 0.0356 0.5645 0.0275
vt 0.1610 0.5645 0.0275
vt 0.1610 0.3136 0.0275
vt 0.2237 0.5645 0.0275
vt 0.2237 0.3136 0.0275
vt 0.0117 0.3136 -0.0271
vt 0.0117 0.5645 -0.0271
vt 0.0349 0.3135 0.0275
vt 0.0349 0.5644 0.0275
vt 0.0975 0.5644 0.0275
vt 0.0975 0.3135 0.0275
vt 0.2230 0.3135 0.0275
vt 0.2230 0.5644 0.0275
vt 0.0110 0.3135 -0.0271
vt 0.0110 0.5644 -0.0271
vt 0.1603 0.3135 0.0275
vt 0.1603 0.5644 0.0275
# 186 texture coords

o Box001
g Box001
s 1
f 1/1/1 2/2/1 3/3/1 
f 3/3/1 4/4/1 1/1/1 
f 5/5/2 6/6/2 7/7/2 
f 7/7/2 8/8/2 5/5/2 
f 9/9/3 10/10/4 11/11/4 
f 11/11/4 12/12/3 9/9/3 
s 2
f 13/13/5 14/14/5 10/15/5 
f 10/15/5 9/16/5 13/13/5 
s 1
f 15/17/6 16/18/7 14/19/7 
f 14/19/7 13/20/6 15/17/6 
s 2
f 12/13/8 11/14/8 16/15/8 
f 16/15/8 15/16/8 12/13/8 
f 17/21/2 18/22/2 19/23/2 
f 19/23/2 20/24/2 17/21/2 
f 18/22/2 21/25/2 22/26/2 
f 22/26/2 19/23/2 18/22/2 
f 21/25/2 23/27/2 24/28/2 
f 24/28/2 22/26/2 21/25/2 
f 23/27/2 17/21/2 20/24/2 
f 20/24/2 24/28/2 23/27/2 
s 4
f 20/29/4 19/30/4 6/31/4 
f 6/31/4 5/32/4 20/29/4 
s 8
f 19/5/5 22/6/5 7/7/5 
f 7/7/5 6/8/5 19/5/5 
s 4
f 22/5/7 24/6/7 8/7/7 
f 8/7/7 7/8/7 22/5/7 
s 8
f 24/5/8 20/6/8 5/7/8 
f 5/7/8 8/8/8 24/5/8 
s 1
f 18/33/4 17/34/4 11/11/4 
f 11/11/4 10/10/4 18/33/4 
s 4
f 25/35/5 26/36/5 27/37/5 
f 27/37/5 28/38/5 25/35/5 
s 1
f 23/39/7 21/40/7 14/19/7 
f 14/19/7 16/18/7 23/39/7 
s 4
f 29/35/8 30/36/8 31/37/8 
f 31/37/8 32/38/8 29/35/8 
s 2
f 21/25/2 18/22/2 26/41/2 
f 26/41/2 25/42/2 21/25/2 
s 1
f 18/33/4 10/10/4 27/43/4 
f 27/43/4 26/44/4 18/33/4 
f 33/45/1 34/46/1 35/47/1 
f 35/47/1 36/48/1 33/45/1 
f 14/19/7 21/40/7 25/49/7 
f 25/49/7 28/50/7 14/19/7 
s 2
f 17/21/2 23/27/2 30/51/2 
f 30/51/2 29/52/2 17/21/2 
s 1
f 23/39/7 16/18/7 31/53/7 
f 31/53/7 30/54/7 23/39/7 
f 37/47/1 38/48/1 39/45/1 
f 39/45/1 40/46/1 37/47/1 
f 11/11/4 17/34/4 29/55/4 
f 29/55/4 32/56/4 11/11/4 
s 8
f 10/57/1 14/58/1 41/59/1 
f 41/59/1 42/60/1 10/57/1 
f 14/58/1 28/61/1 43/62/1 
f 43/62/1 41/59/1 14/58/1 
f 28/61/1 27/63/1 44/64/1 
f 44/64/1 43/62/1 28/61/1 
f 27/63/1 10/57/1 42/60/1 
f 42/60/1 44/64/1 27/63/1 
f 16/61/1 11/63/1 45/64/1 
f 45/64/1 46/62/1 16/61/1 
f 11/63/1 32/57/1 47/60/1 
f 47/60/1 45/64/1 11/63/1 
f 32/57/1 31/58/1 48/59/1 
f 48/59/1 47/60/1 32/57/1 
f 31/58/1 16/61/1 46/62/1 
f 46/62/1 48/59/1 31/58/1 
s 2
f 42/65/8 41/66/8 34/67/8 
f 34/67/8 33/68/8 42/65/8 
s 4
f 41/69/7 43/70/7 35/71/7 
f 35/71/7 34/72/7 41/69/7 
s 2
f 43/66/5 44/65/5 36/68/5 
f 36/68/5 35/67/5 43/66/5 
s 4
f 44/69/4 42/70/4 33/71/4 
f 33/71/4 36/72/4 44/69/4 
s 2
f 46/66/5 45/65/5 38/68/5 
f 38/68/5 37/67/5 46/66/5 
s 4
f 45/69/4 47/70/4 39/71/4 
f 39/71/4 38/72/4 45/69/4 
s 2
f 47/65/8 48/66/8 40/67/8 
f 40/67/8 39/68/8 47/65/8 
s 4
f 48/69/7 46/70/7 37/71/7 
f 37/71/7 40/72/7 48/69/7 
f 12/13/9 15/16/9 49/73/9 
f 49/73/9 50/74/9 12/13/9 
s 1
f 15/17/6 13/20/6 51/75/10 
f 51/75/10 49/76/10 15/17/6 
s 4
f 13/13/11 9/16/11 52/73/11 
f 52/73/11 51/74/11 13/13/11 
s 1
f 9/9/3 12/12/3 50/77/12 
f 50/77/12 52/78/12 9/9/3 
s 2
f 50/79/1 49/80/1 53/81/1 
f 53/81/1 54/82/1 50/79/1 
f 49/80/1 51/83/1 55/84/1 
f 55/84/1 53/81/1 49/80/1 
f 51/83/1 52/85/1 56/86/1 
f 56/86/1 55/84/1 51/83/1 
f 52/85/1 50/79/1 54/82/1 
f 54/82/1 56/86/1 52/85/1 
s 1
f 57/87/8 58/88/8 59/89/8 
f 59/89/8 60/90/8 57/87/8 
s 4
f 53/91/7 55/92/7 3/93/7 
f 3/93/7 2/94/7 53/91/7 
s 1
f 61/87/5 62/88/5 63/89/5 
f 63/89/5 64/90/5 61/87/5 
s 4
f 56/91/4 54/92/4 1/93/4 
f 1/93/4 4/94/4 56/91/4 
s 8
f 54/95/8 53/96/8 65/97/8 
f 65/97/8 66/98/8 54/95/8 
f 53/96/8 2/99/8 67/100/8 
f 67/100/8 65/97/8 53/96/8 
f 2/99/8 1/101/8 68/102/8 
f 68/102/8 67/100/8 2/99/8 
f 1/101/8 54/95/8 66/98/8 
f 66/98/8 68/102/8 1/101/8 
f 55/95/5 56/96/5 69/97/5 
f 69/97/5 70/98/5 55/95/5 
f 56/96/5 4/99/5 71/100/5 
f 71/100/5 69/97/5 56/96/5 
f 4/99/5 3/101/5 72/102/5 
f 72/102/5 71/100/5 4/99/5 
f 3/101/5 55/95/5 70/98/5 
f 70/98/5 72/102/5 3/101/5 
s 1
f 73/103/13 74/104/14 75/105/14 
f 75/105/14 76/106/13 73/103/13 
s 2
f 77/107/15 78/108/16 79/109/16 
f 79/109/16 80/110/15 77/107/15 
s 1
f 81/111/17 82/112/18 83/113/18 
f 83/113/18 84/114/17 81/111/17 
s 2
f 85/115/19 86/116/20 87/117/20 
f 87/117/20 88/118/19 85/115/19 
s 1
f 89/119/14 90/120/13 91/121/13 
f 91/121/13 92/122/14 89/119/14 
s 2
f 93/123/20 94/124/19 95/125/19 
f 95/125/19 96/126/20 93/123/20 
s 1
f 97/127/18 98/128/17 99/129/17 
f 99/129/17 100/130/18 97/127/18 
s 2
f 101/131/16 102/132/15 103/133/15 
f 103/133/15 104/134/16 101/131/16 
f 58/88/2 57/87/2 105/135/2 
f 105/135/2 106/136/2 58/88/2 
s 1
f 107/137/2 108/138/2 66/139/2 
f 66/139/2 65/140/2 107/137/2 
s 4
f 59/89/7 58/88/7 106/141/7 
f 106/141/7 109/142/7 59/89/7 
s 2
f 110/139/7 107/140/7 65/137/7 
f 65/137/7 67/138/7 110/139/7 
f 60/90/1 59/89/1 109/143/1 
f 109/143/1 111/144/1 60/90/1 
s 1
f 112/137/1 110/138/1 67/139/1 
f 67/139/1 68/140/1 112/137/1 
s 4
f 57/87/4 60/90/4 111/145/4 
f 111/145/4 105/146/4 57/87/4 
s 2
f 108/137/4 112/138/4 68/139/4 
f 68/139/4 66/140/4 108/137/4 
f 62/88/2 61/87/2 113/135/2 
f 113/135/2 114/136/2 62/88/2 
s 1
f 115/139/2 116/140/2 70/137/2 
f 70/137/2 69/138/2 115/139/2 
s 4
f 63/89/4 62/88/4 114/141/4 
f 114/141/4 117/142/4 63/89/4 
s 2
f 118/139/4 115/140/4 69/137/4 
f 69/137/4 71/138/4 118/139/4 
f 64/90/1 63/89/1 117/143/1 
f 117/143/1 119/144/1 64/90/1 
s 1
f 120/139/1 118/140/1 71/137/1 
f 71/137/1 72/138/1 120/139/1 
s 4
f 61/87/7 64/90/7 119/145/7 
f 119/145/7 113/146/7 61/87/7 
s 2
f 116/137/7 120/138/7 72/139/7 
f 72/139/7 70/140/7 116/137/7 
s 8
f 105/147/8 121/148/8 74/149/8 
f 74/149/8 73/150/8 122/151/8 
f 105/147/8 74/149/8 122/151/8 
f 106/152/8 105/147/8 122/151/8 
f 111/153/8 123/154/8 86/155/8 
f 86/155/8 85/156/8 121/148/8 
f 111/153/8 86/155/8 121/148/8 
f 105/147/8 111/153/8 121/148/8 
f 109/157/8 124/158/8 82/159/8 
f 82/159/8 81/160/8 123/154/8 
f 109/157/8 82/159/8 123/154/8 
f 111/153/8 109/157/8 123/154/8 
f 106/152/8 122/151/8 78/161/8 
f 78/161/8 77/162/8 124/158/8 
f 106/152/8 78/161/8 124/158/8 
f 109/157/8 106/152/8 124/158/8 
s 4
f 107/147/5 125/148/5 76/149/5 
f 76/149/5 75/150/5 126/151/5 
f 107/147/5 76/149/5 126/151/5 
f 108/152/5 107/147/5 126/151/5 
f 110/153/5 127/154/5 80/155/5 
f 80/155/5 79/156/5 125/148/5 
f 110/153/5 80/155/5 125/148/5 
f 107/147/5 110/153/5 125/148/5 
f 112/157/5 128/158/5 84/159/5 
f 84/159/5 83/160/5 127/154/5 
f 112/157/5 84/159/5 127/154/5 
f 110/153/5 112/157/5 127/154/5 
f 108/152/5 126/151/5 88/161/5 
f 88/161/5 87/162/5 128/158/5 
f 108/152/5 88/161/5 128/158/5 
f 112/157/5 108/152/5 128/158/5 
s 8
f 113/147/5 129/148/5 90/149/5 
f 90/149/5 89/150/5 130/151/5 
f 113/147/5 90/149/5 130/151/5 
f 114/152/5 113/147/5 130/151/5 
f 119/153/5 131/154/5 102/155/5 
f 102/155/5 101/156/5 129/148/5 
f 119/153/5 102/155/5 129/148/5 
f 113/147/5 119/153/5 129/148/5 
f 117/157/5 132/158/5 98/159/5 
f 98/159/5 97/160/5 131/154/5 
f 117/157/5 98/159/5 131/154/5 
f 119/153/5 117/157/5 131/154/5 
f 114/152/5 130/151/5 94/161/5 
f 94/161/5 93/162/5 132/158/5 
f 114/152/5 94/161/5 132/158/5 
f 117/157/5 114/152/5 132/158/5 
s 4
f 115/147/8 133/148/8 92/149/8 
f 92/149/8 91/150/8 134/151/8 
f 115/147/8 92/149/8 134/151/8 
f 116/152/8 115/147/8 134/151/8 
f 118/153/8 135/154/8 96/155/8 
f 96/155/8 95/156/8 133/148/8 
f 118/153/8 96/155/8 133/148/8 
f 115/147/8 118/153/8 133/148/8 
f 120/157/8 136/158/8 100/159/8 
f 100/159/8 99/160/8 135/154/8 
f 120/157/8 100/159/8 135/154/8 
f 118/153/8 120/157/8 135/154/8 
f 116/152/8 134/151/8 104/161/8 
f 104/161/8 103/162/8 136/158/8 
f 116/152/8 104/161/8 136/158/8 
f 120/157/8 116/152/8 136/158/8 
s 8
f 121/148/8 137/163/8 74/149/8 
f 73/150/8 138/164/8 122/151/8 
f 123/154/8 139/165/8 86/155/8 
f 85/156/8 137/163/8 121/148/8 
f 124/158/8 140/166/8 82/159/8 
f 81/160/8 139/165/8 123/154/8 
f 122/151/8 138/164/8 78/161/8 
f 77/162/8 140/166/8 124/158/8 
s 4
f 125/148/5 141/163/5 76/149/5 
f 75/150/5 142/164/5 126/151/5 
f 127/154/5 143/165/5 80/155/5 
f 79/156/5 141/163/5 125/148/5 
f 128/158/5 144/166/5 84/159/5 
f 83/160/5 143/165/5 127/154/5 
f 126/151/5 142/164/5 88/161/5 
f 87/162/5 144/166/5 128/158/5 
s 8
f 129/148/5 145/163/5 90/149/5 
f 89/150/5 146/164/5 130/151/5 
f 131/154/5 147/165/5 102/155/5 
f 101/156/5 145/163/5 129/148/5 
f 132/158/5 148/166/5 98/159/5 
f 97/160/5 147/165/5 131/154/5 
f 130/151/5 146/164/5 94/161/5 
f 93/162/5 148/166/5 132/158/5 
s 4
f 133/148/8 149/163/8 92/149/8 
f 91/150/8 150/164/8 134/151/8 
f 135/154/8 151/165/8 96/155/8 
f 95/156/8 149/163/8 133/148/8 
f 136/158/8 152/166/8 100/159/8 
f 99/160/8 151/165/8 135/154/8 
f 134/151/8 150/164/8 104/161/8 
f 103/162/8 152/166/8 136/158/8 
s 1
f 73/103/13 76/106/13 141/167/21 
f 141/167/21 138/168/21 73/103/13 
f 75/105/14 74/104/14 137/169/22 
f 137/169/22 142/170/22 75/105/14 
s 2
f 77/107/15 80/110/15 143/171/23 
f 143/171/23 140/172/23 77/107/15 
f 79/109/16 78/108/16 138/168/24 
f 138/168/24 141/167/24 79/109/16 
s 1
f 81/111/17 84/114/17 144/173/25 
f 144/173/25 139/174/25 81/111/17 
f 83/113/18 82/112/18 140/172/26 
f 140/172/26 143/171/26 83/113/18 
s 2
f 85/175/19 88/176/19 142/170/27 
f 142/170/27 137/169/27 85/175/19 
f 87/117/20 86/116/20 139/174/28 
f 139/174/28 144/173/28 87/117/20 
s 1
f 89/119/14 92/122/14 149/177/22 
f 149/177/22 146/178/22 89/119/14 
f 91/121/13 90/120/13 145/179/21 
f 145/179/21 150/180/21 91/121/13 
s 2
f 93/123/20 96/126/20 151/181/28 
f 151/181/28 148/182/28 93/123/20 
f 95/183/19 94/184/19 146/178/27 
f 146/178/27 149/177/27 95/183/19 
s 1
f 97/127/18 100/130/18 152/185/26 
f 152/185/26 147/186/26 97/127/18 
f 99/129/17 98/128/17 148/182/25 
f 148/182/25 151/181/25 99/129/17 
s 2
f 101/131/16 104/134/16 150/180/24 
f 150/180/24 145/179/24 101/131/16 
f 103/133/15 102/132/15 147/186/23 
f 147/186/23 152/185/23 103/133/15 
# 300 faces

