# 3ds Max Wavefront OBJ Exporter v0.99 - (c)2007 guruware
# File Created: 18.03.2024 22:44:38

#
# object s
#

v  -0.1411 0.0000 0.1411
v  -0.1411 0.0000 -0.1411
v  0.1411 0.0000 -0.1411
v  0.1411 0.0000 0.1411
v  -0.1411 1.4106 0.1411
v  0.1411 1.4106 0.1411
v  0.1411 1.4106 -0.1411
v  -0.1411 1.4106 -0.1411
v  -0.4232 0.8464 0.1411
v  -0.1411 0.8464 0.1411
v  -0.1411 0.8464 0.4232
v  -0.4232 0.8464 0.4232
v  -0.4232 1.1285 0.1411
v  -0.4232 1.1285 0.4232
v  -0.1411 1.1285 0.4232
v  -0.1411 1.1285 0.1411
v  -0.1411 0.8464 0.7053
v  0.1411 0.8464 0.4232
v  0.1411 0.8464 0.7053
v  -0.1411 1.1285 0.7053
v  0.1411 1.1285 0.7053
v  0.1411 1.1285 0.4232
v  -0.7053 0.8464 -0.1411
v  -0.4232 0.8464 -0.1411
v  -0.7053 0.8464 0.1411
v  -0.7053 1.1285 -0.1411
v  -0.7053 1.1285 0.1411
v  -0.4232 1.1285 -0.1411
v  -0.1411 0.8464 -0.1411
v  -0.1411 1.1285 -0.1411
v  0.1411 0.8464 0.1411
v  0.1411 1.1285 0.1411
v  0.4232 0.8464 0.1411
v  0.4232 0.8464 0.4232
v  0.4232 1.1285 0.4232
v  0.4232 1.1285 0.1411
v  -0.1411 1.4106 0.4232
v  0.1411 1.4106 0.4232
v  -0.4232 0.8464 -0.4232
v  -0.1411 0.8464 -0.4232
v  -0.4232 1.1285 -0.4232
v  -0.1411 1.1285 -0.4232
v  0.1411 0.8464 -0.4232
v  0.1411 0.8464 -0.1411
v  0.1411 1.1285 -0.1411
v  0.1411 1.1285 -0.4232
v  0.4232 0.8464 -0.4232
v  0.4232 0.8464 -0.1411
v  0.4232 1.1285 -0.1411
v  0.4232 1.1285 -0.4232
v  -0.1411 0.8464 -0.7053
v  0.1411 0.8464 -0.7053
v  -0.1411 1.1285 -0.7053
v  0.1411 1.1285 -0.7053
v  -0.1411 1.4106 -0.4232
v  0.1411 1.4106 -0.4232
v  -0.4232 1.4106 -0.1411
v  -0.4232 1.4106 0.1411
v  -0.1411 1.6928 -0.1411
v  -0.1411 1.6928 0.1411
v  0.1411 1.6928 0.1411
v  0.1411 1.6928 -0.1411
v  0.7053 0.8464 -0.1411
v  0.7053 0.8464 0.1411
v  0.7053 1.1285 0.1411
v  0.7053 1.1285 -0.1411
v  0.4232 1.4106 0.1411
v  0.4232 1.4106 -0.1411
# 68 vertices

vn 0.0000 -1.0000 -0.0000
vn 0.0000 1.0000 -0.0000
vn 0.0000 0.0000 1.0000
vn 1.0000 0.0000 -0.0000
vn 0.0000 0.0000 -1.0000
vn -1.0000 0.0000 -0.0000
vn -0.0000 0.0000 1.0000
vn 1.0000 0.0000 0.0000
# 8 vertex normals

vt 0.4437 0.5538 0.0000
vt 0.4437 0.0424 0.0000
vt 0.9551 0.0424 0.0000
vt 0.9551 0.5538 0.0000
vt 0.2277 0.6622 0.0000
vt 0.3292 0.6622 0.0000
vt 0.3292 0.7637 0.0000
vt 0.2277 0.7637 0.0000
vt 0.1262 0.6622 0.0000
vt 0.2277 0.5607 0.0000
vt 0.1262 0.5607 0.0000
vt 0.2277 0.4592 0.0000
vt 0.3292 0.5607 0.0000
vt 0.3292 0.4592 0.0000
vt 0.0247 0.7637 0.0000
vt 0.1262 0.7637 0.0000
vt 0.0247 0.6622 0.0000
vt 0.4307 0.6622 0.0000
vt 0.4307 0.5607 0.0000
vt 0.1262 0.8653 0.0000
vt 0.2277 0.8653 0.0000
vt 0.3292 0.8653 0.0000
vt 0.4307 0.8653 0.0000
vt 0.4307 0.7637 0.0000
vt 0.2277 0.9668 0.0000
vt 0.3292 0.9668 0.0000
vt 0.5323 0.7637 0.0000
vt 0.5323 0.6622 0.0000
# 28 texture coords

o s
g s
s 2
f 1/1/1 2/2/1 3/3/1 
f 3/3/1 4/4/1 1/1/1 
s 4
f 5/5/2 6/6/2 7/7/2 
f 7/7/2 8/8/2 5/5/2 
s 8
f 1/1/3 4/4/3 6/4/3 
f 6/4/3 5/1/3 1/1/3 
s 16
f 4/4/4 3/3/4 7/3/4 
f 7/3/4 6/4/4 4/4/4 
s 32
f 3/3/5 2/2/5 8/2/5 
f 8/2/5 7/3/5 3/3/5 
s 64
f 2/2/6 1/1/6 5/1/6 
f 5/1/6 8/2/6 2/2/6 
s 2
f 9/9/1 10/5/1 11/10/1 
f 11/10/1 12/11/1 9/9/1 
s 4
f 13/9/2 14/11/2 15/10/2 
f 15/10/2 16/5/2 13/9/2 
s 8
f 9/9/6 12/11/6 14/11/6 
f 14/11/6 13/9/6 9/9/6 
s 16
f 12/11/3 11/10/3 15/10/3 
f 15/10/3 14/11/3 12/11/3 
s 32
f 11/10/4 10/5/4 16/5/4 
f 16/5/4 15/10/4 11/10/4 
s 64
f 10/5/5 9/9/5 13/9/5 
f 13/9/5 16/5/5 10/5/5 
s 2
f 17/12/1 11/10/1 18/13/1 
f 18/13/1 19/14/1 17/12/1 
s 4
f 20/12/2 21/14/2 22/13/2 
f 22/13/2 15/10/2 20/12/2 
s 8
f 17/12/3 19/14/3 21/14/3 
f 21/14/3 20/12/3 17/12/3 
s 16
f 19/14/4 18/13/4 22/13/4 
f 22/13/4 21/14/4 19/14/4 
s 32
f 18/13/5 11/10/5 15/10/5 
f 15/10/5 22/13/5 18/13/5 
s 64
f 11/10/6 17/12/6 20/12/6 
f 20/12/6 15/10/6 11/10/6 
s 2
f 23/15/1 24/16/1 9/9/1 
f 9/9/1 25/17/1 23/15/1 
s 4
f 26/15/2 27/17/2 13/9/2 
f 13/9/2 28/16/2 26/15/2 
s 8
f 23/15/6 25/17/6 27/17/6 
f 27/17/6 26/15/6 23/15/6 
s 16
f 25/17/3 9/9/3 13/9/3 
f 13/9/3 27/17/3 25/17/3 
s 32
f 9/9/4 24/16/4 28/16/4 
f 28/16/4 13/9/4 9/9/4 
s 64
f 24/16/5 23/15/5 26/15/5 
f 26/15/5 28/16/5 24/16/5 
s 2
f 24/16/1 29/8/1 10/5/1 
f 10/5/1 9/9/1 24/16/1 
s 4
f 28/16/2 13/9/2 16/5/2 
f 16/5/2 30/8/2 28/16/2 
s 8
f 24/16/6 9/9/6 13/9/6 
f 13/9/6 28/16/6 24/16/6 
s 16
f 9/9/7 10/5/7 16/5/7 
f 16/5/7 13/9/7 9/9/7 
s 32
f 10/5/4 29/8/4 30/8/4 
f 30/8/4 16/5/4 10/5/4 
s 64
f 29/8/5 24/16/5 28/16/5 
f 28/16/5 30/8/5 29/8/5 
s 2
f 11/10/1 10/5/1 31/6/1 
f 31/6/1 18/13/1 11/10/1 
s 4
f 15/10/2 22/13/2 32/6/2 
f 32/6/2 16/5/2 15/10/2 
s 8
f 11/10/3 18/13/3 22/13/3 
f 22/13/3 15/10/3 11/10/3 
s 16
f 18/13/4 31/6/4 32/6/4 
f 32/6/4 22/13/4 18/13/4 
s 32
f 31/6/5 10/5/5 16/5/5 
f 16/5/5 32/6/5 31/6/5 
s 64
f 10/5/6 11/10/6 15/10/6 
f 15/10/6 16/5/6 10/5/6 
s 2
f 31/6/1 33/18/1 34/19/1 
f 34/19/1 18/13/1 31/6/1 
s 4
f 32/6/2 22/13/2 35/19/2 
f 35/19/2 36/18/2 32/6/2 
s 8
f 31/6/6 18/13/6 22/13/6 
f 22/13/6 32/6/6 31/6/6 
s 16
f 18/13/3 34/19/3 35/19/3 
f 35/19/3 22/13/3 18/13/3 
s 32
f 34/19/4 33/18/4 36/18/4 
f 36/18/4 35/19/4 34/19/4 
s 64
f 33/18/5 31/6/5 32/6/5 
f 32/6/5 36/18/5 33/18/5 
s 2
f 15/10/1 16/5/1 32/6/1 
f 32/6/1 22/13/1 15/10/1 
s 4
f 37/10/2 38/13/2 6/6/2 
f 6/6/2 5/5/2 37/10/2 
s 8
f 15/10/3 22/13/3 38/13/3 
f 38/13/3 37/10/3 15/10/3 
s 16
f 22/13/4 32/6/4 6/6/4 
f 6/6/4 38/13/4 22/13/4 
s 32
f 32/6/5 16/5/5 5/5/5 
f 5/5/5 6/6/5 32/6/5 
s 64
f 16/5/6 15/10/6 37/10/6 
f 37/10/6 5/5/6 16/5/6 
s 2
f 39/20/1 40/21/1 29/8/1 
f 29/8/1 24/16/1 39/20/1 
s 4
f 41/20/2 28/16/2 30/8/2 
f 30/8/2 42/21/2 41/20/2 
s 8
f 39/20/6 24/16/6 28/16/6 
f 28/16/6 41/20/6 39/20/6 
s 16
f 24/16/7 29/8/7 30/8/7 
f 30/8/7 28/16/7 24/16/7 
s 32
f 29/8/4 40/21/4 42/21/4 
f 42/21/4 30/8/4 29/8/4 
s 64
f 40/21/5 39/20/5 41/20/5 
f 41/20/5 42/21/5 40/21/5 
s 2
f 40/21/1 43/22/1 44/7/1 
f 44/7/1 29/8/1 40/21/1 
s 4
f 42/21/2 30/8/2 45/7/2 
f 45/7/2 46/22/2 42/21/2 
s 8
f 40/21/6 29/8/6 30/8/6 
f 30/8/6 42/21/6 40/21/6 
s 16
f 29/8/3 44/7/3 45/7/3 
f 45/7/3 30/8/3 29/8/3 
s 32
f 44/7/8 43/22/8 46/22/8 
f 46/22/8 45/7/8 44/7/8 
s 64
f 43/22/5 40/21/5 42/21/5 
f 42/21/5 46/22/5 43/22/5 
s 2
f 43/22/1 47/23/1 48/24/1 
f 48/24/1 44/7/1 43/22/1 
s 4
f 46/22/2 45/7/2 49/24/2 
f 49/24/2 50/23/2 46/22/2 
s 8
f 43/22/6 44/7/6 45/7/6 
f 45/7/6 46/22/6 43/22/6 
s 16
f 44/7/3 48/24/3 49/24/3 
f 49/24/3 45/7/3 44/7/3 
s 32
f 48/24/4 47/23/4 50/23/4 
f 50/23/4 49/24/4 48/24/4 
s 64
f 47/23/5 43/22/5 46/22/5 
f 46/22/5 50/23/5 47/23/5 
s 2
f 51/25/1 52/26/1 43/22/1 
f 43/22/1 40/21/1 51/25/1 
s 4
f 53/25/2 42/21/2 46/22/2 
f 46/22/2 54/26/2 53/25/2 
s 8
f 51/25/6 40/21/6 42/21/6 
f 42/21/6 53/25/6 51/25/6 
s 16
f 40/21/3 43/22/3 46/22/3 
f 46/22/3 42/21/3 40/21/3 
s 32
f 43/22/8 52/26/8 54/26/8 
f 54/26/8 46/22/8 43/22/8 
s 64
f 52/26/5 51/25/5 53/25/5 
f 53/25/5 54/26/5 52/26/5 
s 2
f 42/21/1 46/22/1 45/7/1 
f 45/7/1 30/8/1 42/21/1 
s 4
f 55/21/2 8/8/2 7/7/2 
f 7/7/2 56/22/2 55/21/2 
s 8
f 42/21/6 30/8/6 8/8/6 
f 8/8/6 55/21/6 42/21/6 
s 16
f 30/8/3 45/7/3 7/7/3 
f 7/7/3 8/8/3 30/8/3 
s 32
f 45/7/8 46/22/8 56/22/8 
f 56/22/8 7/7/8 45/7/8 
s 64
f 46/22/5 42/21/5 55/21/5 
f 55/21/5 56/22/5 46/22/5 
s 2
f 28/16/1 30/8/1 16/5/1 
f 16/5/1 13/9/1 28/16/1 
s 4
f 57/16/2 58/9/2 5/5/2 
f 5/5/2 8/8/2 57/16/2 
s 8
f 28/16/6 13/9/6 58/9/6 
f 58/9/6 57/16/6 28/16/6 
s 16
f 13/9/7 16/5/7 5/5/7 
f 5/5/7 58/9/7 13/9/7 
s 32
f 16/5/4 30/8/4 8/8/4 
f 8/8/4 5/5/4 16/5/4 
s 64
f 30/8/5 28/16/5 57/16/5 
f 57/16/5 8/8/5 30/8/5 
s 2
f 8/8/1 7/7/1 6/6/1 
f 6/6/1 5/5/1 8/8/1 
s 4
f 59/8/2 60/5/2 61/6/2 
f 61/6/2 62/7/2 59/8/2 
s 8
f 8/8/6 5/5/6 60/5/6 
f 60/5/6 59/8/6 8/8/6 
s 16
f 5/5/7 6/6/7 61/6/7 
f 61/6/7 60/5/7 5/5/7 
s 32
f 6/6/8 7/7/8 62/7/8 
f 62/7/8 61/6/8 6/6/8 
s 64
f 7/7/5 8/8/5 59/8/5 
f 59/8/5 62/7/5 7/7/5 
s 2
f 33/18/1 48/24/1 63/27/1 
f 63/27/1 64/28/1 33/18/1 
s 4
f 36/18/2 65/28/2 66/27/2 
f 66/27/2 49/24/2 36/18/2 
s 8
f 33/18/3 64/28/3 65/28/3 
f 65/28/3 36/18/3 33/18/3 
s 16
f 64/28/4 63/27/4 66/27/4 
f 66/27/4 65/28/4 64/28/4 
s 32
f 63/27/5 48/24/5 49/24/5 
f 49/24/5 66/27/5 63/27/5 
s 64
f 48/24/6 33/18/6 36/18/6 
f 36/18/6 49/24/6 48/24/6 
s 2
f 32/6/1 45/7/1 49/24/1 
f 49/24/1 36/18/1 32/6/1 
s 4
f 6/6/2 67/18/2 68/24/2 
f 68/24/2 7/7/2 6/6/2 
s 8
f 32/6/3 36/18/3 67/18/3 
f 67/18/3 6/6/3 32/6/3 
s 16
f 36/18/4 49/24/4 68/24/4 
f 68/24/4 67/18/4 36/18/4 
s 32
f 49/24/5 45/7/5 7/7/5 
f 7/7/5 68/24/5 49/24/5 
s 64
f 45/7/6 32/6/6 6/6/6 
f 6/6/6 7/7/6 45/7/6 
s 2
f 31/6/1 44/7/1 48/24/1 
f 48/24/1 33/18/1 31/6/1 
s 4
f 32/6/2 36/18/2 49/24/2 
f 49/24/2 45/7/2 32/6/2 
s 8
f 31/6/3 33/18/3 36/18/3 
f 36/18/3 32/6/3 31/6/3 
s 16
f 33/18/4 48/24/4 49/24/4 
f 49/24/4 36/18/4 33/18/4 
s 32
f 48/24/5 44/7/5 45/7/5 
f 45/7/5 49/24/5 48/24/5 
s 64
f 44/7/6 31/6/6 32/6/6 
f 32/6/6 45/7/6 44/7/6 
# 216 faces

