# 3ds Max Wavefront OBJ Exporter v0.99 - (c)2007 guruware
# File Created: 03.04.2024 17:41:04

#
# object Box001
#

v  0.4156 1.3768 0.4156
v  -0.4156 1.3768 0.4156
v  -0.4156 1.1473 0.4156
v  0.4156 1.1473 0.4156
v  0.4156 1.3768 -0.4156
v  0.4156 1.1473 -0.4156
v  -0.4156 1.3768 -0.4156
v  -0.4156 1.1473 -0.4156
v  -0.1692 0.6884 0.1692
v  0.1692 0.6884 0.1692
v  0.4156 0.6884 0.4156
v  -0.4156 0.6884 0.4156
v  0.1692 0.6884 -0.1692
v  0.4156 0.6884 -0.4156
v  -0.1692 0.6884 -0.1692
v  -0.4156 0.6884 -0.4156
v  -0.1662 1.8357 0.1662
v  -0.2494 1.8357 0.2494
v  0.2494 1.8357 0.2494
v  0.1662 1.8357 0.1662
v  -0.1662 1.8357 -0.1662
v  -0.2494 1.8357 -0.2494
v  0.1662 1.8357 -0.1662
v  0.2494 1.8357 -0.2494
v  0.3325 1.3768 0.3325
v  -0.3325 1.3768 0.3325
v  -0.3325 1.6063 0.3325
v  0.3325 1.6063 0.3325
v  0.2494 1.6063 0.2494
v  -0.2494 1.6063 0.2494
v  -0.1662 2.0652 0.1662
v  0.1662 2.0652 0.1662
v  0.0871 2.0652 0.0831
v  -0.0831 2.0652 0.0831
v  -0.3325 1.3768 -0.3325
v  -0.3325 1.6063 -0.3325
v  -0.2494 1.6063 -0.2494
v  -0.1662 2.0652 -0.1662
v  -0.0831 2.0652 -0.0831
v  0.3325 1.3768 -0.3325
v  0.3325 1.6063 -0.3325
v  0.2494 1.6063 -0.2494
v  0.1662 2.0652 -0.1662
v  0.0871 2.0652 -0.0831
v  -0.0831 2.2946 -0.0831
v  -0.0831 2.2946 0.0831
v  0.0871 2.2946 0.0831
v  0.0871 2.2946 -0.0831
v  -0.1692 0.0000 -0.1692
v  0.1692 0.0000 -0.1692
v  0.1692 0.0000 0.1692
v  -0.1692 0.0000 0.1692
v  0.5819 1.1473 0.5819
v  -0.5819 1.1473 0.5819
v  -0.5819 0.9179 0.5819
v  0.5819 0.9179 0.5819
v  -0.5819 1.1473 -0.5819
v  -0.5819 0.9179 -0.5819
v  0.5819 1.1473 -0.5819
v  0.5819 0.9179 -0.5819
v  0.7481 0.9179 0.7481
v  -0.7481 0.9179 0.7481
v  -0.7481 0.6884 0.7481
v  0.7481 0.6884 0.7481
v  -0.7481 0.9179 -0.7481
v  -0.7481 0.6884 -0.7481
v  0.7481 0.9179 -0.7481
v  0.7481 0.6884 -0.7481
v  0.5819 0.6884 0.5819
v  -0.5819 0.6884 0.5819
v  0.5819 0.6884 -0.5819
v  -0.5819 0.6884 -0.5819
# 72 vertices

vn 0.0000 0.0000 1.0000
vn 1.0000 0.0000 -0.0000
vn 0.0000 0.0000 -1.0000
vn -1.0000 0.0000 -0.0000
vn 0.0000 -1.0000 -0.0000
vn 0.0000 1.0000 -0.0000
# 6 vertex normals

vt 0.3867 0.2373 0.0000
vt 0.1255 0.2373 0.0000
vt 0.1255 0.1652 0.0000
vt 0.3867 0.1652 0.0000
vt 0.6908 0.3092 0.0000
vt 0.7971 0.3092 0.0000
vt 0.8745 0.3867 0.0000
vt 0.6133 0.3867 0.0000
vt 0.7971 0.2029 0.0000
vt 0.8745 0.1255 0.0000
vt 0.6908 0.2029 0.0000
vt 0.6133 0.1255 0.0000
vt 0.6917 0.6917 0.0000
vt 0.6656 0.6656 0.0000
vt 0.8223 0.6656 0.0000
vt 0.7962 0.6917 0.0000
vt 0.6917 0.7962 0.0000
vt 0.6656 0.8223 0.0000
vt 0.7962 0.7962 0.0000
vt 0.8223 0.8223 0.0000
vt 0.6133 0.6133 0.0000
vt 0.8745 0.6133 0.0000
vt 0.8484 0.6395 0.0000
vt 0.6395 0.6395 0.0000
vt 0.7713 0.7178 0.0000
vt 0.7178 0.7178 0.0000
vt 0.6133 0.8745 0.0000
vt 0.6395 0.8484 0.0000
vt 0.7178 0.7701 0.0000
vt 0.8745 0.8745 0.0000
vt 0.8484 0.8484 0.0000
vt 0.7713 0.7701 0.0000
vt 0.1516 0.2373 0.0000
vt 0.3605 0.2373 0.0000
vt 0.3605 0.3094 0.0000
vt 0.1516 0.3094 0.0000
vt 0.1777 0.3094 0.0000
vt 0.3344 0.3094 0.0000
vt 0.3344 0.3815 0.0000
vt 0.1777 0.3815 0.0000
vt 0.2038 0.3815 0.0000
vt 0.3083 0.3815 0.0000
vt 0.3083 0.4536 0.0000
vt 0.2038 0.4536 0.0000
vt 0.2299 0.4536 0.0000
vt 0.2834 0.4536 0.0000
vt 0.2834 0.5257 0.0000
vt 0.2299 0.5257 0.0000
vt 0.2822 0.4536 0.0000
vt 0.2822 0.5257 0.0000
vt 0.2287 0.4536 0.0000
vt 0.2287 0.5257 0.0000
vt 0.3528 0.3292 0.0000
vt 0.4591 0.3292 0.0000
vt 0.4591 0.4355 0.0000
vt 0.3528 0.4355 0.0000
vt 0.4389 0.1652 0.0000
vt 0.0732 0.1652 0.0000
vt 0.0732 0.0931 0.0000
vt 0.4389 0.0931 0.0000
vt 0.4911 0.0931 0.0000
vt 0.0210 0.0931 0.0000
vt 0.0210 0.0210 0.0000
vt 0.4911 0.0210 0.0000
vt 0.5611 0.5611 0.0000
vt 0.9268 0.5611 0.0000
vt 0.5611 0.9268 0.0000
vt 0.9268 0.9268 0.0000
vt 0.9268 0.4389 0.0000
vt 0.5611 0.4389 0.0000
vt 0.9268 0.0732 0.0000
vt 0.5611 0.0732 0.0000
vt 0.5089 0.5089 0.0000
vt 0.9790 0.5089 0.0000
vt 0.5089 0.9790 0.0000
vt 0.9790 0.9790 0.0000
vt 0.9790 0.4911 0.0000
vt 0.5089 0.4911 0.0000
vt 0.9790 0.0210 0.0000
vt 0.5089 0.0210 0.0000
vt 0.1273 0.7597 0.0000
vt 0.0210 0.7597 0.0000
vt 0.0210 0.5434 0.0000
vt 0.1273 0.5434 0.0000
# 84 texture coords

o Box001
g Box001
s 8
f 1/1/1 2/2/1 3/3/1 
f 3/3/1 4/4/1 1/1/1 
s 16
f 5/1/2 1/2/2 4/3/2 
f 4/3/2 6/4/2 5/1/2 
s 32
f 7/1/3 5/2/3 6/3/3 
f 6/3/3 8/4/3 7/1/3 
s 64
f 2/1/4 7/2/4 8/3/4 
f 8/3/4 3/4/4 2/1/4 
s off
f 9/5/5 10/6/5 11/7/5 
f 11/7/5 12/8/5 9/5/5 
f 10/6/5 13/9/5 14/10/5 
f 14/10/5 11/7/5 10/6/5 
f 13/9/5 15/11/5 16/12/5 
f 16/12/5 14/10/5 13/9/5 
f 15/11/5 9/5/5 12/8/5 
f 12/8/5 16/12/5 15/11/5 
f 17/13/6 18/14/6 19/15/6 
f 19/15/6 20/16/6 17/13/6 
f 21/17/6 22/18/6 18/14/6 
f 18/14/6 17/13/6 21/17/6 
f 23/19/6 24/20/6 22/18/6 
f 22/18/6 21/17/6 23/19/6 
f 20/16/6 19/15/6 24/20/6 
f 24/20/6 23/19/6 20/16/6 
f 2/21/6 1/22/6 25/23/6 
f 25/23/6 26/24/6 2/21/6 
f 27/24/6 28/23/6 29/15/6 
f 29/15/6 30/14/6 27/24/6 
f 31/13/6 32/16/6 33/25/6 
f 33/25/6 34/26/6 31/13/6 
f 7/27/6 2/21/6 26/24/6 
f 26/24/6 35/28/6 7/27/6 
f 36/28/6 27/24/6 30/14/6 
f 30/14/6 37/18/6 36/28/6 
f 38/17/6 31/13/6 34/26/6 
f 34/26/6 39/29/6 38/17/6 
f 5/30/6 7/27/6 35/28/6 
f 35/28/6 40/31/6 5/30/6 
f 41/31/6 36/28/6 37/18/6 
f 37/18/6 42/20/6 41/31/6 
f 43/19/6 38/17/6 39/29/6 
f 39/29/6 44/32/6 43/19/6 
f 1/22/6 5/30/6 40/31/6 
f 40/31/6 25/23/6 1/22/6 
f 28/23/6 41/31/6 42/20/6 
f 42/20/6 29/15/6 28/23/6 
f 32/16/6 43/19/6 44/32/6 
f 44/32/6 33/25/6 32/16/6 
s 1
f 45/29/6 46/26/6 47/25/6 
f 47/25/6 48/32/6 45/29/6 
s off
f 26/33/1 25/34/1 28/35/1 
f 28/35/1 27/36/1 26/33/1 
f 25/33/2 40/34/2 41/35/2 
f 41/35/2 28/36/2 25/33/2 
f 40/33/3 35/34/3 36/35/3 
f 36/35/3 41/36/3 40/33/3 
f 35/33/4 26/34/4 27/35/4 
f 27/35/4 36/36/4 35/33/4 
f 30/37/1 29/38/1 19/39/1 
f 19/39/1 18/40/1 30/37/1 
f 29/37/2 42/38/2 24/39/2 
f 24/39/2 19/40/2 29/37/2 
f 42/37/3 37/38/3 22/39/3 
f 22/39/3 24/40/3 42/37/3 
f 37/37/4 30/38/4 18/39/4 
f 18/39/4 22/40/4 37/37/4 
f 17/41/1 20/42/1 32/43/1 
f 32/43/1 31/44/1 17/41/1 
f 20/41/2 23/42/2 43/43/2 
f 43/43/2 32/44/2 20/41/2 
f 23/41/3 21/42/3 38/43/3 
f 38/43/3 43/44/3 23/41/3 
f 21/41/4 17/42/4 31/43/4 
f 31/43/4 38/44/4 21/41/4 
f 34/45/1 33/46/1 47/47/1 
f 47/47/1 46/48/1 34/45/1 
f 33/45/2 44/49/2 48/50/2 
f 48/50/2 47/48/2 33/45/2 
f 44/51/3 39/49/3 45/50/3 
f 45/50/3 48/52/3 44/51/3 
f 39/45/4 34/49/4 46/50/4 
f 46/50/4 45/48/4 39/45/4 
s 1
f 49/53/5 50/54/5 51/55/5 
f 51/55/5 52/56/5 49/53/5 
s off
f 53/57/1 54/58/1 55/59/1 
f 55/59/1 56/60/1 53/57/1 
f 54/57/4 57/58/4 58/59/4 
f 58/59/4 55/60/4 54/57/4 
f 57/57/3 59/58/3 60/59/3 
f 60/59/3 58/60/3 57/57/3 
f 59/57/2 53/58/2 56/59/2 
f 56/59/2 60/60/2 59/57/2 
f 61/61/1 62/62/1 63/63/1 
f 63/63/1 64/64/1 61/61/1 
f 62/61/4 65/62/4 66/63/4 
f 66/63/4 63/64/4 62/61/4 
f 65/61/3 67/62/3 68/63/3 
f 68/63/3 66/64/3 65/61/3 
f 67/61/2 61/62/2 64/63/2 
f 64/63/2 68/64/2 67/61/2 
f 4/22/6 3/21/6 54/65/6 
f 54/65/6 53/66/6 4/22/6 
f 3/21/6 8/27/6 57/67/6 
f 57/67/6 54/65/6 3/21/6 
f 8/27/6 6/30/6 59/68/6 
f 59/68/6 57/67/6 8/27/6 
f 6/30/6 4/22/6 53/66/6 
f 53/66/6 59/68/6 6/30/6 
f 12/8/5 11/7/5 69/69/5 
f 69/69/5 70/70/5 12/8/5 
f 11/7/5 14/10/5 71/71/5 
f 71/71/5 69/69/5 11/7/5 
f 14/10/5 16/12/5 72/72/5 
f 72/72/5 71/71/5 14/10/5 
f 16/12/5 12/8/5 70/70/5 
f 70/70/5 72/72/5 16/12/5 
f 56/66/6 55/65/6 62/73/6 
f 62/73/6 61/74/6 56/66/6 
f 55/65/6 58/67/6 65/75/6 
f 65/75/6 62/73/6 55/65/6 
f 58/67/6 60/68/6 67/76/6 
f 67/76/6 65/75/6 58/67/6 
f 60/68/6 56/66/6 61/74/6 
f 61/74/6 67/76/6 60/68/6 
f 70/70/5 69/69/5 64/77/5 
f 64/77/5 63/78/5 70/70/5 
f 69/69/5 71/71/5 68/79/5 
f 68/79/5 64/77/5 69/69/5 
f 71/71/5 72/72/5 66/80/5 
f 66/80/5 68/79/5 71/71/5 
f 72/72/5 70/70/5 63/78/5 
f 63/78/5 66/80/5 72/72/5 
f 10/81/1 9/82/1 52/83/1 
f 52/83/1 51/84/1 10/81/1 
f 9/81/4 15/82/4 49/83/4 
f 49/83/4 52/84/4 9/81/4 
f 15/81/3 13/82/3 50/83/3 
f 50/83/3 49/84/3 15/81/3 
f 13/81/2 10/82/2 51/83/2 
f 51/83/2 50/84/2 13/81/2 
# 140 faces

